<svg class="" viewBox="0 0 460 700">
  <rect width="460" height="700" fill="#44B7BC" rx="40"></rect>
  <g transform="translate(0 48)">
    <polygon fill="#000" points="0 43.138 203 0 203 54.028 0 97.271"></polygon>
    <path fill="#fff" d="M21.57 54.77l-9.2 2v3.07l5.82-1.27v19.67l9.2-2v-3.08l-5.82 1.27V54.77zm38.7-5.5c2.85-.63 3.9.85 4.01 3.7l3.39-.74c-.32-4.97-2.44-7.19-7.3-6.13-4.54.95-7.61 4.12-7.61 9.62v7.72c0 4.97 2.43 7.3 7.61 6.13 4.86-1.06 7.09-3.7 7.3-8.46l-3.28.74c-.1 2.64-1.48 4.12-4.02 4.65-3.17.64-4.33-.63-4.23-3.7v-7.72c-.1-3.59 1.27-5.18 4.13-5.81zM46.42 69.15V56.04c0-3.92-1.7-6.45-5.5-5.71-2.43.53-5.08 2.53-5.71 4.86v-3.28L28 53.4v3.07l3.81-.85v19.56l3.39-.74v-16.5c1.58-3.07 3.28-4.02 4.86-4.34 1.8-.42 3.07.43 3.07 2.97v16.28l7.19-1.48V68.3l-3.91.85zM189.47 22.2v-3.17l-11.95 2.54v3.17l3.38-.74v19.56l8.57-1.8V38.7l-5.18 1.05V23.26l5.18-1.06zM92.09 59.84c-3.07.64-4.23-.74-4.23-3.8v-3.18l11.63-2.43V46.2c0-4.86-2.64-7.71-7.5-6.66-4.76 1.06-7.51 4.76-7.51 9.52v7.72c0 4.86 2.85 7.19 7.61 6.23 5.92-1.26 7.61-5.6 7.61-8.56l-3.17.53c-.21 3.07-2 4.33-4.44 4.86zm-4.23-11.63c0-2.96 1.16-5.18 4.12-5.81 3.07-.64 4.13 1.27 4.13 4.44V48l-8.25 1.8v-1.6zm56.88.43c-3.06.63-4.23-.74-4.23-3.81v-3.17l11.63-2.43V35c0-4.87-2.64-7.72-7.5-6.66-4.76 1.05-7.5 4.75-7.5 9.51v7.72c0 4.86 2.85 7.19 7.6 6.24 5.92-1.27 7.62-5.6 7.62-8.57l-3.07.64c-.42 2.96-2.22 4.23-4.55 4.76zm-4.23-11.53c0-2.96 1.17-5.18 4.13-5.81 3.06-.64 4.12 1.26 4.12 4.44v1.16l-8.25 1.8v-1.6zm32.78 4.97V28.97c0-3.7-2.11-6.45-5.7-5.6-2.44.52-4.87 2.53-5.61 4.86v-3.28l-7.2 1.48v3.07l3.81-.85v19.56l3.39-.74v-16.5c1.58-3.06 3.27-4 4.86-4.33 1.8-.42 3.07.43 3.07 2.96v16.3l7.19-1.48v-3.07l-3.81.74zm-42.71 9.1V37.52c0-3.49-2.33-5.81-5.71-5.18-2.12.43-4.87 2.86-5.29 4.97-.42-1.69-2.75-3.17-5.18-2.64-2.12.42-4.44 2.54-4.86 4.65v-3.28l-7.2 1.48v3.07l3.81-.85V59.3l3.39-.74V42.2c.95-2.01 2.43-3.92 4.44-4.34 1.26-.21 2.74.21 2.74 3.17V57.2l3.39-.74V40.07c.95-2 2.43-3.91 4.44-4.33 1.27-.22 2.75.2 2.75 3.17v16.17l7.19-1.48v-3.06l-3.91.63zm-58.37-7.2v22.74l3.39-.75V46.42l5.81-1.27v-3.07l-9.2 1.9z"></path>
  </g>
  <polygon fill="#000" points=".001 396.001 108.001 304.001 108.001 432.001 .001 432.001"></polygon>
  <path fill="#000" d="M62.93 647.13c11.7 0 19.72-5.63 19.72-15 0-8.4-4.5-12.75-13.2-15l-8.7-2.25c-4.87-1.28-7.27-3.08-7.27-6.98 0-3.67 3.3-6 8.7-6 4.65 0 8.85 1.65 9.45 7.35h9.75c-1.05-10.65-8.55-15.37-19.05-15.37-11.4 0-18.6 5.85-18.6 14.1 0 7.5 4.05 12.6 12.37 14.77l9.98 2.63c4.57 1.2 6.82 3.22 6.82 6.82 0 4.43-4.42 6.9-10.12 6.9-6 0-9.98-2.32-10.8-8.32h-9.75c.9 11.85 9.37 16.35 20.7 16.35zm38.65-.23c9.22 0 15.6-4.95 16.8-13.42H109c-.45 3.9-3.3 6.15-7.35 6.15s-7.57-2.63-7.57-7.2v-2.55h24.6v-4.73c0-10.5-6.75-18.3-17.1-18.3-10.35 0-17.25 7.95-17.25 19.95s6.37 20.1 17.25 20.1zm7.5-24.3h-15v-1.35c0-4.12 3.22-7.12 7.5-7.12 4.27 0 7.5 3 7.5 7.12v1.35zM9 458c58.96 0 107 22.88 107 52S67.96 562 9 562c-3.03 0-6.03-.06-9-.18v-4c2.97.12 5.97.18 9 .18 57.02 0 103-21.9 103-48S66.02 462 9 462c-3.03 0-6.03.06-9 .18v-4c2.97-.12 5.97-.18 9-.18zM376.96 0c-.63 3.9-.96 7.91-.96 12 0 40.33 31.8 73 71 73 4.44 0 8.79-.42 13-1.22v4.07A73.58 73.58 0 0 1 447 89c-41.43 0-75-34.48-75-77 0-4.08.31-8.09.9-12h4.06z"></path>
</svg>